<svg width="48" height="48" viewBox="0 0 48 48" fill="none" xmlns="http://www.w3.org/2000/svg">
<circle cx="24" cy="32" r="6.5" stroke="#FF498B" stroke-width="3"/>
<path d="M40 23L34 23" stroke="#152C5B" stroke-width="3" stroke-linecap="round" stroke-linejoin="round"/>
<mask id="path-3-inside-1" fill="white">
<path fill-rule="evenodd" clip-rule="evenodd" d="M17.9624 12C17.0915 12 16.3207 12.5636 16.0566 13.3936L14.9091 17H7C3.13401 17 0 20.134 0 24V40C0 43.866 3.13401 47 7 47H41C44.866 47 48 43.866 48 40V24C48 20.134 44.866 17 41 17H33.3636L32.4019 13.4738C32.1646 12.6036 31.3743 12 30.4724 12H17.9624Z"/>
</mask>
<path d="M16.0566 13.3936L13.1978 12.484L13.1978 12.484L16.0566 13.3936ZM14.9091 17V20H17.1027L17.7679 17.9096L14.9091 17ZM33.3636 17L30.4693 17.7894L31.0722 20H33.3636V17ZM32.4019 13.4738L29.5076 14.2631L29.5076 14.2631L32.4019 13.4738ZM18.9154 14.3032C18.7833 14.7182 18.3979 15 17.9624 15V9C15.785 9 13.858 10.4091 13.1978 12.484L18.9154 14.3032ZM17.7679 17.9096L18.9154 14.3032L13.1978 12.484L12.0503 16.0904L17.7679 17.9096ZM7 20H14.9091V14H7V20ZM3 24C3 21.7909 4.79086 20 7 20V14C1.47715 14 -3 18.4772 -3 24H3ZM3 40V24H-3V40H3ZM7 44C4.79086 44 3 42.2091 3 40H-3C-3 45.5228 1.47715 50 7 50V44ZM41 44H7V50H41V44ZM45 40C45 42.2091 43.2091 44 41 44V50C46.5228 50 51 45.5228 51 40H45ZM45 24V40H51V24H45ZM41 20C43.2091 20 45 21.7909 45 24H51C51 18.4772 46.5228 14 41 14V20ZM33.3636 20H41V14H33.3636V20ZM29.5076 14.2631L30.4693 17.7894L36.2579 16.2106L35.2962 12.6844L29.5076 14.2631ZM30.4724 15C30.0215 15 29.6263 14.6982 29.5076 14.2631L35.2962 12.6844C34.703 10.5091 32.7272 9 30.4724 9V15ZM17.9624 15H30.4724V9H17.9624V15Z" fill="#152C5B" mask="url(#path-3-inside-1)"/>
</svg>
