<svg width="48" height="48" viewBox="0 0 48 48" fill="none" xmlns="http://www.w3.org/2000/svg">
<path d="M33.5 40C33.5 41.2638 32.3131 42.8927 29.2507 44.2926C26.3208 45.632 22.1677 46.5 17.5 46.5C12.8323 46.5 8.67922 45.632 5.74927 44.2926C2.68693 42.8927 1.5 41.2638 1.5 40C1.5 38.7362 2.68693 37.1073 5.74927 35.7074C8.67922 34.368 12.8323 33.5 17.5 33.5C22.1677 33.5 26.3208 34.368 29.2507 35.7074C32.3131 37.1073 33.5 38.7362 33.5 40Z" stroke="#152C5B" stroke-width="3"/>
<path d="M29.5 13.0909C29.5 16.4501 28.1102 22.98 25.8016 28.6948C24.6521 31.5404 23.3154 34.0793 21.8857 35.8792C20.4145 37.7312 19.0909 38.5 18 38.5C16.9091 38.5 15.5855 37.7312 14.1143 35.8792C12.6846 34.0793 11.3479 31.5404 10.1984 28.6948C7.8898 22.98 6.5 16.4501 6.5 13.0909C6.5 6.67955 11.6586 1.5 18 1.5C24.3414 1.5 29.5 6.67955 29.5 13.0909Z" fill="white" stroke="#152C5B" stroke-width="3"/>
<circle cx="18" cy="15" r="4.5" stroke="#FF498B" stroke-width="3"/>
</svg>
