<svg width="303" height="270" viewBox="0 0 303 270" fill="none" xmlns="http://www.w3.org/2000/svg">
<circle cx="168" cy="135" r="135" fill="url(#paint0_linear)"/>
<g filter="url(#filter0_d)">
<rect x="59" y="49" width="207" height="163" rx="15" fill="white"/>
</g>
<g filter="url(#filter1_d)">
<rect x="9" y="100" width="60" height="84" rx="6" fill="white"/>
</g>
<path d="M9 106C9 102.686 11.6863 100 15 100H63C66.3137 100 69 102.686 69 106V110H9V106Z" fill="#BCC3D1"/>
<rect x="27" y="158" width="24" height="6" rx="3" fill="#BCC3D1"/>
<rect x="21" y="168" width="36" height="6" rx="3" fill="#BCC3D1"/>
<circle cx="39" cy="134" r="14" fill="#3252DF"/>
<circle cx="39" cy="129" r="5" fill="white"/>
<circle cx="39" cy="148" r="10" fill="white"/>
<path d="M59 64C59 55.7157 65.7157 49 74 49H251C259.284 49 266 55.7157 266 64H59Z" fill="#BCC3D1"/>
<rect x="79" y="76" width="95" height="6" rx="3" fill="#BCC3D1"/>
<rect x="79" y="88" width="143" height="6" rx="3" fill="#BCC3D1"/>
<rect x="79" y="106" width="97" height="77" rx="6" fill="#BCC3D1"/>
<rect x="79" y="192" width="97" height="41" rx="6" fill="#BCC3D1"/>
<rect x="185" y="106" width="97" height="44" rx="6" fill="#BCC3D1"/>
<rect x="185" y="159" width="73" height="44" rx="6" fill="#BCC3D1"/>
<circle cx="258" cy="204" r="20" fill="#1ABC9C"/>
<circle cx="258" cy="204" r="13" fill="#55DAC0"/>
<path d="M252 202.818L255.276 206.392C256.068 207.256 257.432 207.256 258.224 206.392L265 199" stroke="white" stroke-width="2" stroke-linecap="round"/>
<defs>
<filter id="filter0_d" x="38" y="40" width="237" height="193" filterUnits="userSpaceOnUse" color-interpolation-filters="sRGB">
<feFlood flood-opacity="0" result="BackgroundImageFix"/>
<feColorMatrix in="SourceAlpha" type="matrix" values="0 0 0 0 0 0 0 0 0 0 0 0 0 0 0 0 0 0 127 0"/>
<feOffset dx="-6" dy="6"/>
<feGaussianBlur stdDeviation="7.5"/>
<feColorMatrix type="matrix" values="0 0 0 0 0 0 0 0 0 0 0 0 0 0 0 0 0 0 0.05 0"/>
<feBlend mode="normal" in2="BackgroundImageFix" result="effect1_dropShadow"/>
<feBlend mode="normal" in="SourceGraphic" in2="effect1_dropShadow" result="shape"/>
</filter>
<filter id="filter1_d" x="0" y="91" width="90" height="114" filterUnits="userSpaceOnUse" color-interpolation-filters="sRGB">
<feFlood flood-opacity="0" result="BackgroundImageFix"/>
<feColorMatrix in="SourceAlpha" type="matrix" values="0 0 0 0 0 0 0 0 0 0 0 0 0 0 0 0 0 0 127 0"/>
<feOffset dx="6" dy="6"/>
<feGaussianBlur stdDeviation="7.5"/>
<feColorMatrix type="matrix" values="0 0 0 0 0 0 0 0 0 0 0 0 0 0 0 0 0 0 0.05 0"/>
<feBlend mode="normal" in2="BackgroundImageFix" result="effect1_dropShadow"/>
<feBlend mode="normal" in="SourceGraphic" in2="effect1_dropShadow" result="shape"/>
</filter>
<linearGradient id="paint0_linear" x1="281" y1="58" x2="65" y2="218" gradientUnits="userSpaceOnUse">
<stop stop-color="#F5F7FD"/>
<stop offset="1" stop-color="white"/>
</linearGradient>
</defs>
</svg>
